<svg width="240" height="30" viewBox="0 0 240 30" fill="none" xmlns="http://www.w3.org/2000/svg">
<g id="Foundation">
<g id="Dropdown-Menus-REVISED">
<g id="header-1440-copy-3">
<g id="Brightspot-grey-logo">
<path id="Fill-1" fill-rule="evenodd" clip-rule="evenodd" d="M11.88 29.64H0.119995V0.480003H11.52C16.92 0.480003 20.28 3.6 20.28 8.52C20.28 11.64 18.36 13.92 16.32 14.64C18.6 15.6 20.76 17.76 20.76 21.48C20.76 26.76 17.04 29.64 11.88 29.64ZM11.04 4.44H4.55999V12.84H11.04C13.92 12.84 15.84 11.4 15.84 8.64C15.84 5.88 13.92 4.44 11.04 4.44ZM11.52 16.8H4.55999V25.68H11.52C14.64 25.68 16.32 23.76 16.32 21.24C16.32 18.6 14.64 16.8 11.52 16.8Z" fill="#999999"/>
<path id="Fill-2" fill-rule="evenodd" clip-rule="evenodd" d="M42 29.64L35.88 17.4H30.36V29.64H25.92V0.480003H37.2C42.72 0.480003 46.32 4.08 46.32 9C46.32 13.2 43.68 15.84 40.44 16.8L47.16 29.64H42ZM36.84 4.44H30.36V13.56H36.84C39.84 13.56 41.88 11.88 41.88 9C41.88 6.24 39.84 4.44 36.84 4.44Z" fill="#999999"/>
<path id="Fill-3" d="M51.36 0.480003H55.8V29.64H51.36V0.480003Z" fill="#999999"/>
<path id="Fill-5" fill-rule="evenodd" clip-rule="evenodd" d="M79.44 26.64C77.28 28.92 74.52 29.88 71.4 29.88C68.4 29.88 65.76 28.8 63.84 26.76C60.96 23.88 60.96 20.64 60.96 15.12C60.96 9.48 60.96 6.24 63.84 3.36C65.76 1.32 68.28 0.240002 71.4 0.240002C77.64 0.240002 81.24 4.32 82.08 9.36H77.64C76.92 6.12 74.76 4.2 71.4 4.2C69.72 4.2 68.16 4.92 67.2 6C65.76 7.56 65.4 9.24 65.4 15.12C65.4 21 65.76 22.68 67.2 24.24C68.16 25.32 69.72 25.92 71.4 25.92C73.32 25.92 75.12 25.2 76.2 23.88C77.28 22.68 77.64 21.24 77.64 19.32V17.64H71.4V13.92H82.08V18.36C82.08 22.08 81.36 24.6 79.44 26.64Z" fill="#999999"/>
<path id="Fill-7" d="M103.56 29.64V16.92H91.68V29.64H87.24V0.480003H91.68V12.96H103.56V0.480003H108V29.64H103.56Z" fill="#999999"/>
<path id="Fill-8" d="M123.96 4.44V29.64H119.64V4.44H111.6V0.480003H132V4.44H123.96Z" fill="#999999"/>
<path id="Fill-10" fill-rule="evenodd" clip-rule="evenodd" d="M143.64 29.88C139.32 29.88 136.08 28.92 133.32 26.04L136.32 23.16C138.36 25.32 140.76 25.92 143.76 25.92C147.6 25.92 149.76 24.36 149.76 21.48C149.76 20.16 149.4 19.2 148.68 18.48C147.84 17.76 147.12 17.52 145.44 17.16L141.96 16.68C139.56 16.44 137.76 15.6 136.44 14.4C135 13.04 134.28 11.16 134.28 8.76C134.28 3.72 138 0.240002 144.12 0.240002C147.96 0.240002 150.6 1.2 153.12 3.6L150.36 6.36C148.56 4.68 146.4 4.08 144 4.08C140.52 4.08 138.6 6.12 138.6 8.64C138.6 9.72 138.96 10.68 139.68 11.4C140.52 12 141.6 12.48 143.04 12.72L146.28 13.2C149.04 13.56 150.6 14.28 151.8 15.36C153.36 16.8 154.2 18.84 154.2 21.36C154.2 26.76 149.76 29.88 143.64 29.88Z" fill="#999999"/>
<path id="Fill-12" fill-rule="evenodd" clip-rule="evenodd" d="M169.32 18.24H162.72V29.64H158.28V0.480003H169.32C175.08 0.480003 178.68 4.2 178.68 9.36C178.68 14.4 175.08 18.24 169.32 18.24ZM169.08 4.44H162.72V14.16H169.08C172.2 14.16 174.24 12.36 174.24 9.36C174.24 6.24 172.2 4.44 169.08 4.44Z" fill="#999999"/>
<g id="Fill-14">
<path id="path-2" fill-rule="evenodd" clip-rule="evenodd" d="M209.88 15C209.88 23.16 203.4 29.64 195.36 29.64C187.2 29.64 180.72 23.16 180.72 15C180.72 6.96 187.2 0.480003 195.36 0.480003C203.4 0.480003 209.88 6.96 209.88 15ZM184.92 15C184.92 20.76 189.6 25.44 195.36 25.44C201.12 25.44 205.8 20.76 205.8 15C205.8 9.24 201.12 4.56 195.36 4.56C189.6 4.56 184.92 9.24 184.92 15Z" fill="url(#paint0_linear_5085_22627)"/>
<path id="path-2_2" fill-rule="evenodd" clip-rule="evenodd" d="M209.88 15C209.88 23.16 203.4 29.64 195.36 29.64C187.2 29.64 180.72 23.16 180.72 15C180.72 6.96 187.2 0.480003 195.36 0.480003C203.4 0.480003 209.88 6.96 209.88 15ZM184.92 15C184.92 20.76 189.6 25.44 195.36 25.44C201.12 25.44 205.8 20.76 205.8 15C205.8 9.24 201.12 4.56 195.36 4.56C189.6 4.56 184.92 9.24 184.92 15Z" fill="#FE1F3C"/>
</g>
<path id="Fill-13" d="M221.88 4.56V29.76H217.56V4.56H209.52V0.600002H229.92V4.56H221.88Z" fill="#999999"/>
<path id="&#194;&#174;" fill-rule="evenodd" clip-rule="evenodd" d="M239.64 4.08C239.64 5.04 239.32 5.88 238.68 6.6C237.96 7.24 237.12 7.56 236.16 7.56C235.2 7.56 234.36 7.24 233.64 6.6C233 5.88 232.68 5.04 232.68 4.08C232.68 3.12 233 2.32 233.64 1.68C234.36 0.960002 235.2 0.600002 236.16 0.600002C237.12 0.600002 237.96 0.960002 238.68 1.68C239.32 2.32 239.64 3.12 239.64 4.08ZM236.16 1.08C235.36 1.08 234.64 1.36 234 1.92C233.44 2.56 233.16 3.28 233.16 4.08C233.16 4.96 233.44 5.68 234 6.24C234.64 6.8 235.36 7.08 236.16 7.08C236.96 7.08 237.68 6.8 238.32 6.24C238.88 5.68 239.16 4.96 239.16 4.08C239.16 3.28 238.88 2.56 238.32 1.92C237.68 1.36 236.96 1.08 236.16 1.08ZM236.04 2.16C236.52 2.16 236.88 2.2 237.12 2.28C237.52 2.44 237.72 2.76 237.72 3.24C237.72 3.64 237.6 3.92 237.36 4.08C237.2 4.16 237 4.2 236.76 4.2C237.08 4.28 237.32 4.4 237.48 4.56C237.64 4.8 237.72 5 237.72 5.16V5.52C237.72 5.6 237.72 5.68 237.72 5.76C237.72 5.84 237.72 5.92 237.72 6H237.12C237.12 6 237.12 5.96 237.12 5.88V5.76V5.52C237.12 5.04 237 4.76 236.76 4.68C236.6 4.52 236.32 4.44 235.92 4.44H235.44V6H234.72V2.16H236.04ZM237 3.36C237 3.04 236.92 2.84 236.76 2.76C236.6 2.68 236.36 2.64 236.04 2.64H235.44V4.08H236.04C236.28 4.08 236.48 4.04 236.64 3.96C236.88 3.88 237 3.68 237 3.36Z" fill="#999999"/>
</g>
</g>
</g>
</g>
<defs>
<linearGradient id="paint0_linear_5085_22627" x1="353.64" y1="127.2" x2="890.88" y2="710.52" gradientUnits="userSpaceOnUse">
<stop stop-color="#FF203C"/>
<stop offset="0.5" stop-color="#DB22B0"/>
<stop offset="1" stop-color="#086CEF"/>
</linearGradient>
</defs>
</svg>
