<svg width="83" height="29" viewBox="0 0 83 29" fill="none" xmlns="http://www.w3.org/2000/svg">
<g clip-path="url(#clip0_1_6)">
<mask id="mask0_1_6" style="mask-type:luminance" maskUnits="userSpaceOnUse" x="0" y="0" width="83" height="29">
<path d="M82.1667 0H0V29H82.1667V0Z" fill="white"/>
</mask>
<g mask="url(#mask0_1_6)">
<path d="M7.6252 5.88667C8.81777 2.37152 12.1184 0 15.8286 0C19.5388 0 22.8274 2.37152 24.0079 5.88667L31.6331 28.3499H21.8638L20.5868 24.3532H11.0463L9.76942 28.3499H0L7.6252 5.88667ZM15.8166 9.43794L13.311 17.2868H18.3222L15.8166 9.43794Z" fill="black"/>
<path d="M56.1229 3.87629C54.7497 2.63636 53.1355 1.68534 51.2804 1.01121C49.4253 0.337069 47.4016 0 45.2332 0C43.0649 0 41.0412 0.337069 39.1861 1.01121C37.3189 1.68534 35.7168 2.63636 34.3555 3.87629C32.9944 5.11623 31.9343 6.621 31.1513 8.39062C30.3803 10.1602 29.9828 12.1466 29.9828 14.3495C29.9828 16.5525 30.3683 18.5508 31.1513 20.3566C31.9222 22.1623 32.9944 23.7152 34.3555 24.9913C35.7168 26.2673 37.3189 27.2545 39.1861 27.9527C41.0412 28.6509 43.0649 29 45.2332 29C47.4016 29 49.4253 28.6509 51.2804 27.9527C53.1355 27.2545 54.7618 26.2673 56.1229 24.9913C57.4962 23.7152 58.5683 22.1623 59.3392 20.3566C60.1102 18.5508 60.5077 16.5404 60.5077 14.3495C60.5077 12.1585 60.1222 10.1722 59.3392 8.39062C58.5683 6.621 57.4962 5.11623 56.1229 3.87629ZM50.2564 16.8294C49.9794 17.5757 49.606 18.2258 49.1121 18.7675C48.6182 19.3093 48.052 19.7306 47.3895 20.0316C46.7269 20.3325 46.0162 20.477 45.2332 20.477C44.4502 20.477 43.7275 20.3325 43.0649 20.0316C42.3904 19.7306 41.8242 19.3093 41.3423 18.7675C40.8605 18.2258 40.4871 17.5757 40.222 16.8294C39.945 16.083 39.8125 15.2524 39.8125 14.3495C39.8125 13.4466 39.945 12.6642 40.222 11.9298C40.4991 11.1955 40.8725 10.5695 41.3423 10.064C41.8242 9.55832 42.3904 9.16106 43.0649 8.88419C43.7395 8.59527 44.4623 8.46285 45.2332 8.46285C46.0042 8.46285 46.7269 8.60731 47.3895 8.88419C48.052 9.17311 48.6182 9.55832 49.1121 10.064C49.606 10.5695 49.9794 11.1835 50.2564 11.9298C50.5336 12.6642 50.666 13.4466 50.666 14.3495C50.666 15.2524 50.5336 16.083 50.2564 16.8294Z" fill="black"/>
<path d="M71.8672 20.3927V0.890816H62.5556V21.1631C62.5556 25.1357 65.7719 28.362 69.7591 28.362H82.1667V20.4047H71.8793L71.8672 20.3927Z" fill="black"/>
</g>
</g>
<defs>
<clipPath id="clip0_1_6">
<rect width="82.1667" height="29" fill="white"/>
</clipPath>
</defs>
</svg>
